<?xml version="1.0" encoding="UTF-8"?>
<svg xmlns="http://www.w3.org/2000/svg" xmlns:xlink="http://www.w3.org/1999/xlink"   viewBox="0 0 192 192" version="1.1">
<g>
<path style="fill-rule:nonzero;fill-opacity:1;stroke-width:1;stroke-linecap:butt;stroke-linejoin:miter;stroke:rgb(0%,0%,0%);stroke-opacity:1;stroke-miterlimit:4;" fill="#000000" d="M 52.739583 10.5 C 49.192708 12 46.989583 15.802083 46.776042 20.901042 C 46.421875 27.901042 42.942708 23.703125 94.546875 79.203125 C 119.890625 106.505208 140.546875 129.005208 140.401042 129.203125 C 140.1875 129.401042 119.53125 150.901042 94.473958 176.901042 C 69.416667 202.901042 48.260417 225.302083 47.411458 226.5 C 41.520833 235.5 48.6875 249.901042 56.708333 245.197917 C 58.552083 244.197917 159.989583 138.296875 161.057292 136.296875 C 162.973958 132.796875 163.260417 126.994792 161.552083 123.197917 C 160.489583 120.697917 60.041667 11.796875 57.770833 10.697917 C 56.067708 9.796875 54.364583 9.796875 52.729167 10.5 Z M 52.739583 10.5 " transform="matrix(0.75,0,0,0.75,0,0)"/>
</g>
</svg>
